<svg width="105" height="27" viewBox="0 0 105 27" fill="none" xmlns="http://www.w3.org/2000/svg">
<path d="M43.88 21.26C39.434 21.26 35.17 16.944 35.17 11.588C35.17 6.102 38.862 2.28 43.802 2.28C47.91 2.28 50.77 5.452 50.77 7.09C50.77 7.558 50.458 7.87 49.964 7.87C48.404 7.87 48.612 3.112 43.334 3.112C39.824 3.112 36.73 6.284 36.73 10.808C36.73 16.138 40.344 19.882 44.374 19.882C47.728 19.882 49.6 17.282 50.432 15.072C50.666 14.578 51.394 14.63 51.238 15.332C50.484 18.244 48.118 21.26 43.88 21.26ZM57.6687 21.26C54.7567 21.26 52.8587 18.972 52.8587 15.046V10.366C52.8587 9.482 51.9227 9.482 51.9227 9.066V9.04C51.9227 8.858 52.0527 8.754 52.2607 8.702L53.8727 8.338C54.1847 8.26 54.3927 8.286 54.3927 8.598V15.15C54.3927 18.478 55.6667 20.454 57.9287 20.454C60.0607 20.454 61.7507 18.738 61.7507 16.06V10.366C61.7507 9.482 60.7627 9.508 60.7627 9.066V9.04C60.7627 8.858 60.8667 8.754 61.0747 8.702L62.7387 8.338C63.0767 8.26 63.2587 8.286 63.2587 8.598V18.998C63.2587 20.818 64.8187 20.064 64.8187 20.688C64.8187 21.078 64.4547 21.156 63.5707 21.156C62.6087 21.156 61.8027 20.688 61.8547 19.232L61.8027 18.842C61.0227 20.376 59.5407 21.26 57.6687 21.26ZM72.168 21.26C70.348 21.26 68.788 20.35 67.878 18.92L67.904 20.688C67.904 20.87 67.774 21.026 67.566 21.026L65.824 21C65.642 21 65.512 20.922 65.512 20.792V20.714C65.512 20.324 66.448 20.35 66.448 19.492V4.022C66.448 3.008 65.486 3.034 65.486 2.644V2.592C65.486 2.462 65.59 2.384 65.85 2.254L67.28 1.578C67.722 1.37 67.93 1.526 67.93 1.89V10.366C68.788 9.092 70.348 8.26 72.142 8.26C75.444 8.26 78.07 10.886 78.07 14.578C78.07 18.374 75.496 21.26 72.168 21.26ZM67.904 16.294H67.956C67.956 18.504 69.854 20.558 71.908 20.558C74.69 20.558 76.536 18.244 76.536 14.89C76.536 11.458 74.586 8.962 71.752 8.962C69.724 8.962 67.93 10.678 67.93 12.55V13.642L67.904 16.294ZM85.8038 21.26C83.9838 21.26 82.4238 20.35 81.5138 18.92L81.5398 20.688C81.5398 20.87 81.4098 21.026 81.2018 21.026L79.4598 21C79.2778 21 79.1478 20.922 79.1478 20.792V20.714C79.1478 20.324 80.0838 20.35 80.0838 19.492V4.022C80.0838 3.008 79.1218 3.034 79.1218 2.644V2.592C79.1218 2.462 79.2258 2.384 79.4858 2.254L80.9158 1.578C81.3578 1.37 81.5658 1.526 81.5658 1.89V10.366C82.4238 9.092 83.9838 8.26 85.7778 8.26C89.0798 8.26 91.7058 10.886 91.7058 14.578C91.7058 18.374 89.1318 21.26 85.8038 21.26ZM81.5398 16.294H81.5918C81.5918 18.504 83.4898 20.558 85.5438 20.558C88.3258 20.558 90.1718 18.244 90.1718 14.89C90.1718 11.458 88.2218 8.962 85.3878 8.962C83.3598 8.962 81.5658 10.678 81.5658 12.55V13.642L81.5398 16.294ZM93.7547 26.46C92.0387 26.46 90.8947 25.238 90.8947 24.406C90.8947 23.964 91.1547 23.652 91.5967 23.652C92.5587 23.652 92.3247 25.758 94.0927 25.758C95.2887 25.758 96.4327 24.042 97.4987 21.39L92.5847 10.21C92.1167 9.17 91.4407 9.3 91.4407 8.832V8.78C91.4407 8.598 91.5707 8.52 91.7527 8.52H94.3787C94.5867 8.52 94.6907 8.598 94.6907 8.78V8.832C94.6907 9.3 93.8067 9.196 94.2227 10.21L98.3047 19.934L102.491 10.314C103.011 9.144 101.581 9.3 101.581 8.832V8.78C101.581 8.598 101.711 8.52 101.919 8.52H104.207C104.363 8.52 104.519 8.598 104.519 8.78V8.832C104.519 9.3 103.895 9.144 103.401 10.21L98.4867 21.156C97.3947 23.652 96.2507 26.46 93.7547 26.46Z" fill="#832F27"/>
<g clip-path="url(#clip0_2832_28667)">
<path d="M16.5826 13.5987H28V14.6125H16.5826C16.5591 14.7311 16.5288 14.8464 16.4884 14.9617L26.3814 20.7151L25.8767 21.5966L15.9837 15.8432L15.0785 15.3177C15.4116 15.0159 15.6236 14.5887 15.6236 14.1039C15.6236 13.2021 14.8968 12.4698 14.0017 12.4698C13.1066 12.4698 12.3798 13.2021 12.3798 14.1039C12.3798 14.5887 12.5918 15.0193 12.9249 15.3177L12.0971 15.7991L2.12667 21.6L1.62192 20.7185L11.515 14.9617C11.4779 14.8498 11.4443 14.7311 11.4207 14.6125H0V13.5954H11.4174C11.4409 13.4767 11.4712 13.3614 11.5116 13.2461L1.62192 7.4927L2.12667 6.61121L12.0163 12.368C12.0971 12.2765 12.1812 12.1884 12.2721 12.1104L6.56171 2.14271L7.43661 1.63415L13.1503 11.6018C13.2614 11.5645 13.3792 11.5306 13.4969 11.5069V0H14.5064V11.5035C14.6242 11.5272 14.7386 11.5577 14.853 11.5984L20.5634 1.63415L21.4383 2.14271L15.7246 12.1104C15.8154 12.1917 15.9029 12.2765 15.9803 12.368L25.8733 6.6146L26.3781 7.49609L16.4884 13.2495C16.5254 13.3614 16.5591 13.4801 16.5826 13.5987Z" fill="#832F27"/>
</g>
<defs>
<clipPath id="clip0_2832_28667">
<rect width="28" height="21.6" fill="white"/>
</clipPath>
</defs>
</svg>
